<?xml version="1.0" encoding="utf-8"?>
<!-- Generator: Adobe Illustrator 22.1.0, SVG Export Plug-In . SVG Version: 6.00 Build 0)  -->
<svg xmlns="http://www.w3.org/2000/svg" xmlns:xlink="http://www.w3.org/1999/xlink" version="1.1" id="Layer_1" x="0px" y="0px" viewBox="0 0 512 512" style="enable-background:new 0 0 512 512;" xml:space="preserve" width="512" height="512">
<style type="text/css">
	.st0{fill:#DB9C2E;}
	.st1{fill:#BF6C0D;}
	.st2{fill:#F9BB32;}
	.st3{fill:#FCE575;}
	.st4{fill:#FFD551;}
	.st5{fill:#FFC34C;}
	.st6{fill:#FFDF74;}
	.st7{fill:#FFA730;}
	.st8{fill:#FFF4C1;}
	.st9{fill:#FFEACF;}
	.st10{fill:#FF624B;}
	.st11{fill:#CCC033;}
	.st12{fill:#8C4C17;}
	.st13{fill:#FFD59A;}
	.st14{fill:#99AF17;}
	.st15{fill:#FCF9DE;}
	.st16{fill:#E58D23;}
	.st17{fill:#A56021;}
	.st18{fill:#FF4B34;}
	.st19{fill:#FF9079;}
	.st20{fill:#EACF32;}
	.st21{fill:#FFB74B;}
	.st22{fill:#FCDA4F;}
	.st23{fill:#FFEA63;}
</style>
<g>
	<g>
		<g>
			<rect x="342.997" y="413.175" class="st9" width="64.943" height="75.856"/>
		</g>
		<g>
			<rect x="342.997" y="413.176" class="st13" width="28.805" height="75.856"/>
		</g>
		<g>
			<path class="st9" d="M369.586,454.367h-2.762c-43.663,0-79.058-35.396-79.058-79.058v-43.712     c0-43.663,35.396-79.058,79.058-79.058h2.762c43.663,0,79.058,35.395,79.058,79.058v43.712     C448.644,418.971,413.248,454.367,369.586,454.367z"/>
		</g>
		<g>
			<path class="st13" d="M296.265,335.833l-29.074,35.06c-1.22,1.471-1.887,3.321-1.887,5.232v0.686     c0,4.526,3.669,8.196,8.196,8.196h22.766V335.833z"/>
		</g>
		<g>
			<path class="st13" d="M316.57,373.928v-40.951c0-39.509,28.484-72.363,66.037-79.151c-4.673-0.845-9.486-1.288-14.402-1.288h0     c-44.425,0-80.439,36.014-80.439,80.439v40.951c0,44.425,36.014,80.439,80.439,80.439h0c4.916,0,9.729-0.443,14.402-1.288     C345.055,446.291,316.57,413.437,316.57,373.928z"/>
		</g>
		<g>
			<path class="st17" d="M423.247,307.669H300.336c-19.33,0-35-15.67-35-35v-21.939c0-4.418,3.582-8,8-8h129.911     c22.091,0,40,17.909,40,40v4.939C443.247,298.715,434.293,307.669,423.247,307.669z"/>
		</g>
		<g>
			<path class="st17" d="M398.139,393.175v-89.612c0-11.046,8.954-20,20-20h24.939c11.046,0,20,8.954,20,20v89.612     c0,11.046-8.954,20-20,20h-24.939C407.094,413.175,398.139,404.221,398.139,393.175z"/>
		</g>
		<g>
			<circle class="st9" cx="398.139" cy="353.452" r="29.376"/>
		</g>
		<g>
			<path class="st12" d="M294.14,282.465v-33.974c0-3.182,2.579-5.761,5.761-5.761h-28.805c-3.181,0-5.761,2.579-5.761,5.761v33.974     c0,13.92,11.284,25.204,25.204,25.204h28.805C305.424,307.669,294.14,296.385,294.14,282.465z"/>
		</g>
		<g>
			<path class="st1" d="M428.606,285.2c-0.04,0-0.08,0-0.12-0.001c-3.313-0.064-5.946-2.803-5.882-6.116     c0.086-4.398-1.121-7.806-3.69-10.415c-5.921-6.015-17.085-6.1-17.155-6.13c-0.008,0-0.016,0-0.023,0     c-3.303,0-5.987-2.671-6-5.977c-0.013-3.313,2.663-6.011,5.977-6.023c0.652-0.021,16.24,0.048,25.753,9.711     c4.885,4.963,7.287,11.379,7.137,19.068C434.539,282.59,431.865,285.2,428.606,285.2z"/>
		</g>
		<g>
			<path class="st1" d="M450.761,393.467c-3.313,0-6-2.687-6-6v-56.098c0-3.313,2.687-6,6-6s6,2.687,6,6v56.098     C456.761,390.78,454.074,393.467,450.761,393.467z"/>
		</g>
		<g>
			<path class="st8" d="M201.108,289.677H88.922c-22.091,0-40,17.909-40,40v44.979c0,22.091,17.909,40,40,40h71.726     c17.09,25.997,41.601,26.032,55.659,23.332c3.246-0.623,3.704-5.065,0.668-6.373c-9.471-4.08-14.915-10.37-17.98-16.959h2.113     c22.091,0,40-17.909,40-40v-44.979C241.108,307.585,223.199,289.677,201.108,289.677z"/>
		</g>
		<g>
			<g>
				<path class="st3" d="M68.922,374.656v-44.979c0-22.091,17.909-40,40-40h-20c-22.091,0-40,17.909-40,40v44.979      c0,22.091,17.909,40,40,40h20C86.831,414.656,68.922,396.747,68.922,374.656z"/>
			</g>
		</g>
	</g>
	<g>
		
			<rect x="104.06" y="193.175" transform="matrix(-1 -4.201893e-10 4.201893e-10 -1 273.0632 462.2067)" class="st9" width="64.943" height="75.856"/>
	</g>
	<g>
		<rect x="140.199" y="193.176" class="st13" width="28.805" height="75.856"/>
	</g>
	<g>
		<path class="st9" d="M142.414,234.367h2.762c43.663,0,79.058-35.396,79.058-79.058v-43.712c0-43.663-35.395-79.058-79.058-79.058    h-2.762c-43.663,0-79.058,35.396-79.058,79.058v43.712C63.356,198.971,98.752,234.367,142.414,234.367z"/>
	</g>
	<g>
		<path class="st13" d="M215.735,115.833l29.074,35.06c1.22,1.471,1.887,3.321,1.887,5.232v0.686c0,4.526-3.669,8.196-8.196,8.196    h-22.766V115.833z"/>
	</g>
	<g>
		<path class="st13" d="M195.43,153.928v-40.951c0-39.509-28.484-72.363-66.037-79.151c4.673-0.845,9.486-1.288,14.402-1.288h0    c44.425,0,80.439,36.014,80.439,80.439v40.951c0,44.425-36.014,80.439-80.439,80.439h0c-4.916,0-9.729-0.443-14.402-1.288    C166.945,226.291,195.43,193.437,195.43,153.928z"/>
	</g>
	<g>
		<path class="st17" d="M88.753,87.669h122.355c16.569,0,30-13.431,30-30v-5c0-16.535-13.404-29.939-29.939-29.939H108.753    c-22.091,0-40,17.909-40,40v4.939C68.753,78.715,77.707,87.669,88.753,87.669z"/>
	</g>
	<g>
		<path class="st17" d="M113.861,173.175V83.563c0-11.046-8.954-20-20-20H68.922c-11.046,0-20,8.954-20,20v89.612    c0,11.046,8.954,20,20,20h24.939C104.906,193.175,113.861,184.221,113.861,173.175z"/>
	</g>
	<g>
		<circle class="st9" cx="113.861" cy="133.452" r="29.376"/>
	</g>
	<g>
		<path class="st1" d="M228.159,67.306c-0.008,0-0.016,0-0.024,0c-3.308-0.013-5.979-2.699-5.977-6.005    c-0.001-0.185-0.123-11.3-6.162-17.204c-2.606-2.548-6.011-3.745-10.383-3.659c-3.295,0.068-6.051-2.568-6.116-5.882    c-0.064-3.313,2.569-6.052,5.882-6.116c7.703-0.132,14.105,2.251,19.068,7.137c9.663,9.513,9.713,25.094,9.711,25.753    C234.146,64.635,231.461,67.306,228.159,67.306z"/>
	</g>
	<g>
		<path class="st8" d="M310.892,69.677h112.186c22.091,0,40,17.909,40,40v44.979c0,22.091-17.909,40-40,40h-71.726    c-17.09,25.997-41.601,26.032-55.659,23.332c-3.246-0.623-3.704-5.065-0.668-6.373c9.471-4.08,14.915-10.37,17.98-16.959h-2.113    c-22.091,0-40-17.909-40-40v-44.979C270.892,87.585,288.801,69.677,310.892,69.677z"/>
	</g>
	<g>
		<g>
			<path class="st3" d="M443.078,154.656v-44.979c0-22.091-17.909-40-40-40h20c22.091,0,40,17.909,40,40v44.979     c0,22.091-17.909,40-40,40h-20C425.169,194.656,443.078,176.747,443.078,154.656z"/>
		</g>
	</g>
	<g>
		<path class="st12" d="M68.922,173.176V83.563c0-11.046,8.954-20,20-20h-20c-11.046,0-20,8.954-20,20v89.613    c0,11.046,8.954,20,20,20h20C77.876,193.176,68.922,184.221,68.922,173.176z"/>
	</g>
	<g>
		<path class="st12" d="M98.753,67.669V62.73c0-22.091,17.908-40,40-40h-30c-22.092,0-40,17.909-40,40v4.939    c0,11.046,8.954,20,20,20h30C107.707,87.669,98.753,78.715,98.753,67.669z"/>
	</g>
	<g>
		<g>
			<path class="st17" d="M373.981,123.2h-74.698c-2.437,0-4.413-3.335-4.413-7.45c0-4.114,1.976-7.45,4.413-7.45h74.698     c2.437,0,4.413,3.335,4.413,7.45C378.394,119.865,376.418,123.2,373.981,123.2z"/>
		</g>
	</g>
	<g>
		<g>
			<path class="st17" d="M435.087,152.914H299.283c-2.437,0-4.413-3.335-4.413-7.45c0-4.114,1.976-7.45,4.413-7.45h135.804     c2.437,0,4.413,3.335,4.413,7.45C439.5,149.579,437.524,152.914,435.087,152.914z"/>
		</g>
	</g>
	<g>
		<g>
			<path class="st17" d="M158.032,343.045H83.334c-2.437,0-4.413-3.335-4.413-7.45c0-4.114,1.976-7.45,4.413-7.45h74.698     c2.437,0,4.413,3.335,4.413,7.45C162.445,339.71,160.469,343.045,158.032,343.045z"/>
		</g>
	</g>
	<g>
		<g>
			<path class="st17" d="M219.138,372.76H83.334c-2.437,0-4.413-3.335-4.413-7.45c0-4.114,1.976-7.45,4.413-7.45h135.804     c2.437,0,4.413,3.335,4.413,7.45C223.551,369.424,221.576,372.76,219.138,372.76z"/>
		</g>
	</g>
	<g>
		<path class="st15" d="M223.552,328.667c-0.019,0-0.038,0-0.056,0c-3.313-0.03-5.975-2.741-5.944-6.056    c0.04-4.361-1.2-7.657-3.79-10.074c-6.476-6.044-19.167-5.231-19.293-5.223c-3.309,0.257-6.192-2.21-6.45-5.513    c-0.259-3.304,2.209-6.191,5.513-6.45c0.729-0.061,18.021-1.291,28.418,8.413c5.043,4.707,7.672,11.262,7.601,18.958    C229.521,326.017,226.84,328.667,223.552,328.667z"/>
	</g>
	<g>
		<circle class="st12" cx="120.683" cy="61.305" r="15.815"/>
	</g>
	<g>
		<circle class="st12" cx="319.344" cy="279.2" r="15.815"/>
	</g>
</g>
</svg>
