<?xml version="1.0" encoding="utf-8"?>
<!-- Generator: Adobe Illustrator 22.1.0, SVG Export Plug-In . SVG Version: 6.00 Build 0)  -->
<svg xmlns="http://www.w3.org/2000/svg" xmlns:xlink="http://www.w3.org/1999/xlink" version="1.1" id="Layer_1" x="0px" y="0px" viewBox="0 0 512 512" style="enable-background:new 0 0 512 512;" xml:space="preserve" width="512" height="512">
<style type="text/css">
	.st0{fill:#DB9C2E;}
	.st1{fill:#BF6C0D;}
	.st2{fill:#F9BB32;}
	.st3{fill:#FCE575;}
	.st4{fill:#FFD551;}
	.st5{fill:#FFC34C;}
	.st6{fill:#FFDF74;}
	.st7{fill:#FFA730;}
	.st8{fill:#FFF4C1;}
	.st9{fill:#FFEACF;}
	.st10{fill:#FF624B;}
	.st11{fill:#CCC033;}
	.st12{fill:#8C4C17;}
	.st13{fill:#FFD59A;}
	.st14{fill:#99AF17;}
	.st15{fill:#FCF9DE;}
	.st16{fill:#E58D23;}
	.st17{fill:#A56021;}
	.st18{fill:#FF4B34;}
	.st19{fill:#FF9079;}
	.st20{fill:#EACF32;}
	.st21{fill:#FFB74B;}
	.st22{fill:#FCDA4F;}
	.st23{fill:#FFEA63;}
</style>
<g>
	<g>
		<g>
			<path class="st11" d="M498.037,493.035H304.492v0c0-46.779,37.922-84.702,84.702-84.702h24.141     C460.114,408.334,498.037,446.256,498.037,493.035L498.037,493.035z"/>
		</g>
	</g>
	<g>
		<g>
			<path class="st20" d="M484.5,489.544c-3.313,0-6-2.687-6-6c0-19.746-12.112-27.728-12.235-27.806     c-2.791-1.787-3.605-5.497-1.818-8.288c1.787-2.791,5.497-3.606,8.288-1.818c0.725,0.464,17.765,11.674,17.765,37.913     C490.5,486.857,487.813,489.544,484.5,489.544z"/>
		</g>
	</g>
	<g>
		<g>
			<path class="st14" d="M413.335,408.334h-24.141c-21.023,0-40.242,7.676-55.049,20.355c-0.06,0.051-0.119,0.104-0.179,0.155     c-2.042,1.758-3.998,3.611-5.863,5.554c-0.16,0.167-0.319,0.334-0.478,0.501c-1.724,1.825-3.366,3.726-4.924,5.699     c-0.221,0.28-0.443,0.559-0.661,0.841c-0.446,0.58-0.885,1.164-1.316,1.755c-0.253,0.346-0.498,0.699-0.746,1.049     c-0.659,0.933-1.299,1.878-1.92,2.838c-0.295,0.455-0.592,0.909-0.878,1.37c-0.329,0.53-0.649,1.066-0.967,1.604     c-0.301,0.51-0.595,1.023-0.885,1.54c-0.281,0.499-0.565,0.995-0.835,1.5c-0.496,0.925-0.974,1.86-1.436,2.804     c-0.221,0.452-0.43,0.911-0.643,1.367c-0.307,0.657-0.606,1.317-0.896,1.982c-0.198,0.454-0.395,0.907-0.585,1.365     c-0.414,0.996-0.813,2-1.189,3.016c-0.121,0.327-0.233,0.659-0.35,0.988c-0.31,0.871-0.608,1.747-0.89,2.63     c-0.131,0.41-0.258,0.82-0.382,1.232c-0.276,0.913-0.537,1.833-0.783,2.759c-0.071,0.268-0.15,0.533-0.218,0.802     c-0.297,1.165-0.565,2.342-0.814,3.525c-0.074,0.354-0.141,0.71-0.211,1.066c-0.185,0.944-0.355,1.893-0.509,2.848     c-0.053,0.327-0.109,0.652-0.158,0.98c-0.183,1.23-0.342,2.468-0.472,3.716c-0.026,0.253-0.044,0.509-0.068,0.763     c-0.099,1.043-0.178,2.091-0.239,3.145c-0.021,0.355-0.041,0.709-0.057,1.065c-0.058,1.289-0.098,2.583-0.098,3.886h41.351     h37.255v-4.066c0-15.786-3.858-30.666-10.673-43.763c15.017-13.587,34.918-21.873,56.768-21.873h24.141     c2.95,0,5.865,0.152,8.738,0.447C448.287,414.061,431.485,408.334,413.335,408.334z"/>
		</g>
	</g>
	<g>
		<g>
			<path class="st12" d="M353.291,339.076h16.61v-70.052c0-9.174-7.437-16.61-16.61-16.61h0c-9.174,0-16.61,7.437-16.61,16.61     v53.441C336.681,331.64,344.117,339.076,353.291,339.076z"/>
		</g>
	</g>
	<g>
		<g>
			<path class="st12" d="M453.468,252.446h-8.46c-6.837,0-12.38,5.543-12.38,12.38v10.78c13.398,9.966,22.078,25.919,22.078,43.9     v19.539c6.256-0.621,11.142-5.898,11.142-12.318v-61.901C465.848,257.989,460.305,252.446,453.468,252.446z"/>
		</g>
	</g>
	<g>
		<g>
			<circle class="st9" cx="455.944" cy="324.204" r="17.685"/>
		</g>
	</g>
	<g>
		<g>
			<circle class="st13" cx="344.522" cy="324.204" r="17.685"/>
		</g>
	</g>
	<g>
		<g>
			<path class="st9" d="M401.264,443.927L401.264,443.927c-14.814,0-26.824-12.009-26.824-26.824v-63.965h53.648v63.965     C428.088,431.918,416.079,443.927,401.264,443.927z"/>
		</g>
	</g>
	<g>
		<g>
			<path class="st13" d="M393.011,417.103v-63.964h-18.57v63.964c0,14.815,12.009,26.824,26.824,26.824l0,0     c3.264,0,6.392-0.585,9.285-1.652C400.312,438.497,393.011,428.653,393.011,417.103z"/>
		</g>
	</g>
	<g>
		<g>
			<path class="st9" d="M401.264,387.165L401.264,387.165c-30.199,0-54.679-24.481-54.679-54.679v-27.837     c0-30.199,24.481-54.679,54.679-54.679h0c30.199,0,54.679,24.481,54.679,54.679v27.837     C455.944,362.685,431.463,387.165,401.264,387.165z"/>
		</g>
	</g>
	<g>
		<g>
			<path class="st5" d="M207.508,493.035H13.963v0c0-46.779,37.922-84.702,84.702-84.702h24.141     C169.586,408.334,207.508,446.256,207.508,493.035L207.508,493.035z"/>
		</g>
	</g>
	<g>
		<g>
			<path class="st7" d="M128.665,418.334h24.141c3.847,0,7.627,0.281,11.338,0.777c-12.229-6.854-26.322-10.777-41.338-10.777     H98.665c-46.779,0-84.702,37.922-84.702,84.702l0,0h30.608C49.522,450.972,85.271,418.334,128.665,418.334z"/>
		</g>
	</g>
	<g>
		<g>
			<path class="st13" d="M365.774,325.602v-27.143c0-2.07,0.116-4.114,0.341-6.124c0.348-3.112,3.016-5.447,6.148-5.447h80.728     c-7.374-21.479-27.746-36.918-51.727-36.918c-2.348,0-4.659,0.153-6.929,0.44c0.003-0.002,0.007-0.004,0.01-0.006     c-0.175,0.022-0.347,0.054-0.521,0.078c-0.576,0.078-1.151,0.162-1.722,0.258c-0.277,0.047-0.551,0.1-0.826,0.151     c-0.505,0.093-1.008,0.191-1.508,0.298c-0.29,0.062-0.579,0.128-0.867,0.194c-0.487,0.112-0.971,0.232-1.453,0.358     c-0.282,0.073-0.564,0.147-0.845,0.225c-0.499,0.139-0.994,0.287-1.488,0.439c-0.251,0.078-0.504,0.152-0.755,0.233     c-0.591,0.192-1.176,0.397-1.758,0.608c-0.144,0.052-0.29,0.099-0.433,0.153c-0.724,0.27-1.44,0.555-2.149,0.854     c-0.185,0.078-0.366,0.163-0.55,0.243c-0.519,0.226-1.036,0.456-1.546,0.697c-0.255,0.121-0.507,0.248-0.76,0.373     c-0.434,0.213-0.866,0.43-1.293,0.655c-0.271,0.142-0.539,0.288-0.807,0.435c-0.406,0.222-0.808,0.449-1.207,0.681     c-0.268,0.155-0.535,0.312-0.8,0.471c-0.401,0.242-0.797,0.491-1.191,0.743c-0.249,0.159-0.5,0.316-0.746,0.479     c-0.434,0.287-0.861,0.585-1.286,0.884c-0.196,0.138-0.395,0.271-0.588,0.41c-0.602,0.436-1.195,0.883-1.778,1.342     c-0.181,0.143-0.356,0.293-0.536,0.438c-0.407,0.329-0.812,0.659-1.209,0.999c-0.237,0.203-0.469,0.413-0.702,0.62     c-0.331,0.293-0.661,0.588-0.985,0.89c-0.245,0.228-0.486,0.46-0.727,0.692c-0.304,0.293-0.604,0.589-0.901,0.889     c-0.24,0.242-0.478,0.486-0.714,0.733c-0.29,0.304-0.575,0.614-0.858,0.924c-0.228,0.25-0.456,0.498-0.679,0.753     c-0.291,0.332-0.574,0.67-0.857,1.009c-0.202,0.242-0.407,0.479-0.605,0.724c-0.414,0.514-0.818,1.036-1.214,1.565     c-0.206,0.274-0.404,0.554-0.604,0.833c-0.277,0.385-0.555,0.769-0.822,1.161c-0.196,0.287-0.383,0.581-0.574,0.872     c-0.223,0.341-0.445,0.681-0.66,1.027c-0.193,0.31-0.38,0.623-0.567,0.937c-0.201,0.338-0.399,0.677-0.593,1.019     c-0.183,0.322-0.362,0.646-0.538,0.973c-0.186,0.345-0.367,0.693-0.546,1.042c-0.169,0.329-0.338,0.658-0.5,0.992     c-0.177,0.362-0.344,0.729-0.513,1.096c-0.15,0.326-0.304,0.65-0.447,0.98c-0.194,0.445-0.375,0.896-0.557,1.347     c-0.198,0.491-0.389,0.985-0.574,1.483c-0.151,0.408-0.306,0.814-0.448,1.226h0.005c-1.912,5.57-2.957,11.543-2.957,17.762     v27.176c0,30.082,24.02,55.026,54.1,55.337c9.671,0.1,18.77-2.311,26.687-6.621c-2.387,0.302-4.822,0.45-7.295,0.433     C389.911,380.77,365.774,355.768,365.774,325.602z"/>
		</g>
	</g>
	<g>
		<g>
			<path class="st12" d="M62.762,339.076h16.61v-70.052c0-9.174-7.437-16.61-16.61-16.61h0c-9.174,0-16.61,7.437-16.61,16.61v53.441     C46.152,331.64,53.589,339.076,62.762,339.076z"/>
		</g>
	</g>
	<g>
		<g>
			<path class="st12" d="M162.939,252.446h-8.46c-6.837,0-12.38,5.543-12.38,12.38v10.78c13.398,9.966,22.078,25.919,22.078,43.9     v19.539c6.256-0.621,11.142-5.898,11.142-12.318v-61.901C175.319,257.989,169.776,252.446,162.939,252.446z"/>
		</g>
	</g>
	<g>
		<g>
			<circle class="st9" cx="165.415" cy="324.204" r="17.685"/>
		</g>
	</g>
	<g>
		<g>
			<circle class="st13" cx="53.993" cy="324.204" r="17.685"/>
		</g>
	</g>
	<g>
		<g>
			<path class="st9" d="M110.736,443.927L110.736,443.927c-14.814,0-26.824-12.009-26.824-26.824v-63.965h53.648v63.965     C137.56,431.918,125.55,443.927,110.736,443.927z"/>
		</g>
	</g>
	<g>
		<g>
			<path class="st13" d="M102.482,417.103v-63.964h-18.57v63.964c0,14.815,12.009,26.824,26.824,26.824l0,0     c3.264,0,6.392-0.585,9.285-1.652C109.783,438.497,102.482,428.653,102.482,417.103z"/>
		</g>
	</g>
	<g>
		<g>
			<path class="st9" d="M110.736,387.165L110.736,387.165c-30.199,0-54.679-24.481-54.679-54.679v-27.837     c0-30.199,24.481-54.679,54.679-54.679h0c30.199,0,54.679,24.481,54.679,54.679v27.837     C165.415,362.685,140.934,387.165,110.736,387.165z"/>
		</g>
	</g>
	<g>
		<g>
			<path class="st13" d="M75.246,325.602v-27.143c0-2.07,0.116-4.114,0.341-6.124c0.348-3.112,3.016-5.447,6.148-5.447h80.728     c-7.374-21.479-27.746-36.918-51.727-36.918c-2.348,0-4.659,0.153-6.929,0.44c0.003-0.002,0.007-0.004,0.01-0.006     c-0.175,0.022-0.347,0.054-0.521,0.078c-0.576,0.078-1.151,0.162-1.722,0.258c-0.277,0.047-0.551,0.1-0.826,0.151     c-0.505,0.093-1.008,0.191-1.508,0.298c-0.29,0.062-0.579,0.128-0.867,0.194c-0.487,0.112-0.971,0.232-1.453,0.358     c-0.282,0.073-0.564,0.147-0.845,0.225c-0.499,0.139-0.994,0.287-1.488,0.439c-0.251,0.078-0.504,0.152-0.755,0.233     c-0.591,0.192-1.176,0.397-1.759,0.608c-0.144,0.052-0.29,0.099-0.433,0.153c-0.724,0.27-1.44,0.555-2.149,0.854     c-0.185,0.078-0.366,0.163-0.55,0.243c-0.519,0.226-1.036,0.456-1.546,0.697c-0.255,0.121-0.507,0.248-0.76,0.373     c-0.434,0.213-0.866,0.43-1.293,0.655c-0.271,0.142-0.539,0.288-0.807,0.435c-0.406,0.222-0.808,0.449-1.207,0.681     c-0.268,0.155-0.535,0.312-0.8,0.471c-0.401,0.242-0.797,0.491-1.191,0.743c-0.249,0.159-0.5,0.316-0.746,0.479     c-0.434,0.287-0.861,0.585-1.286,0.884c-0.196,0.138-0.395,0.271-0.588,0.41c-0.602,0.436-1.195,0.883-1.778,1.342     c-0.181,0.143-0.356,0.293-0.536,0.438c-0.407,0.329-0.812,0.659-1.209,0.999c-0.237,0.203-0.468,0.413-0.702,0.62     c-0.331,0.293-0.661,0.588-0.985,0.89c-0.245,0.228-0.486,0.46-0.727,0.692c-0.304,0.293-0.604,0.589-0.901,0.889     c-0.24,0.242-0.478,0.486-0.714,0.733c-0.29,0.304-0.575,0.614-0.858,0.924c-0.228,0.25-0.456,0.498-0.679,0.753     c-0.291,0.332-0.574,0.67-0.857,1.009c-0.202,0.242-0.407,0.479-0.605,0.724c-0.414,0.514-0.818,1.036-1.214,1.565     c-0.206,0.274-0.404,0.554-0.604,0.833c-0.277,0.385-0.555,0.769-0.822,1.161c-0.196,0.287-0.383,0.581-0.574,0.872     c-0.223,0.341-0.445,0.681-0.66,1.027c-0.193,0.31-0.38,0.623-0.567,0.937c-0.201,0.338-0.399,0.677-0.593,1.019     c-0.183,0.322-0.362,0.646-0.538,0.973c-0.186,0.345-0.367,0.693-0.546,1.042c-0.169,0.329-0.338,0.658-0.5,0.992     c-0.177,0.362-0.344,0.729-0.513,1.096c-0.15,0.326-0.304,0.65-0.447,0.98c-0.194,0.445-0.375,0.896-0.557,1.347     c-0.198,0.491-0.389,0.985-0.574,1.483c-0.151,0.408-0.306,0.814-0.448,1.226h0.005c-1.912,5.57-2.957,11.543-2.957,17.762     v27.176c0,30.082,24.02,55.026,54.1,55.337c9.671,0.1,18.77-2.311,26.687-6.621c-2.387,0.302-4.822,0.45-7.295,0.433     C99.383,380.77,75.246,355.768,75.246,325.602z"/>
		</g>
	</g>
	<g>
		<g>
			<path class="st17" d="M148.459,279.841H70.536c-7.997,0-14.48-6.483-14.48-14.48v0c0-19.335,15.674-35.008,35.008-35.008h36.866     c19.335,0,35.008,15.674,35.008,35.008v0C162.939,273.358,156.456,279.841,148.459,279.841z"/>
		</g>
	</g>
	<g>
		<g>
			<path class="st1" d="M150.551,264.643c-3.19,0-5.845-2.512-5.99-5.73c-0.125-2.78-0.951-4.761-2.601-6.232     c-3.365-3.002-9.512-3.284-11.593-3.143c-3.293,0.234-6.168-2.25-6.411-5.543c-0.243-3.293,2.206-6.163,5.499-6.422     c1.27-0.101,12.649-0.779,20.423,6.09c4.094,3.617,6.401,8.704,6.671,14.709c0.149,3.311-2.414,6.115-5.724,6.264     C150.733,264.641,150.642,264.643,150.551,264.643z"/>
		</g>
	</g>
	<g>
		<g>
			<path class="st4" d="M199.674,489.544c-0.198,0-0.397-0.01-0.598-0.03c-3.298-0.326-5.707-3.264-5.38-6.561     c3.176-32.109-9.822-39.591-9.954-39.663l0.142,0.071l5.154-10.837c2.122,1.009,20.613,11.031,16.599,51.61     C205.332,487.231,202.722,489.544,199.674,489.544z"/>
		</g>
	</g>
	<g>
		<g>
			<g>
				<circle class="st17" cx="79.785" cy="318.568" r="6.809"/>
			</g>
		</g>
		<g>
			<g>
				<circle class="st17" cx="141.686" cy="318.568" r="6.809"/>
			</g>
		</g>
	</g>
	<g>
		<g>
			<path class="st12" d="M316.971,211.644h-9.895c-7.997,0-14.48,6.483-14.48,14.48v12.608     c15.67,11.656,25.823,30.314,25.823,51.345v22.853c7.317-0.726,13.032-6.898,13.032-14.407v-72.399     C331.451,218.127,324.968,211.644,316.971,211.644z"/>
		</g>
	</g>
	<g>
		<g>
			<path class="st10" d="M369.098,493.035H142.73v-4.066c0-52.467,42.533-95,95-95h36.368c52.467,0,95,42.533,95,95V493.035z"/>
		</g>
	</g>
	<g>
		<g>
			<path class="st19" d="M350.506,489.544c-0.158,0-0.317-0.006-0.477-0.019c-3.304-0.26-5.771-3.149-5.511-6.452     c2.187-27.776-12.959-39.858-13.605-40.359c-2.604-2.019-3.112-5.775-1.113-8.395c1.998-2.62,5.717-3.153,8.353-1.175     c0.861,0.646,21.057,16.223,18.329,50.871C356.234,487.158,353.606,489.544,350.506,489.544z"/>
		</g>
	</g>
	<g>
		<g>
			<path class="st8" d="M461.863,18.965h-79.196h-64.529H195.863h-75.529H52.137c-12.134,0-21.97,15.455-21.97,34.519v48.023     c0,19.064,9.836,34.519,21.97,34.519h5.54l18.087,32.395c1.71,3.063,4.75,3.04,6.441-0.05l17.697-32.345h20.431h75.529h36.795     l19.708,32.17c2.092,3.415,6.388,3.327,8.38-0.171l18.228-31.999h39.163h64.529h31.431l17.697,32.345     c1.691,3.09,4.731,3.114,6.441,0.05l18.087-32.395h5.54c12.134,0,21.97-15.455,21.97-34.519V53.483     C483.833,34.419,473.997,18.965,461.863,18.965z"/>
		</g>
	</g>
	<g>
		<g>
			<g>
				<path class="st3" d="M97.677,136.025h-5.54c-12.134,0-21.97-15.455-21.97-34.519V53.483c0-19.064,9.836-34.519,21.97-34.519h-40      c-12.134,0-21.97,15.455-21.97,34.519v48.023c0,19.064,9.836,34.519,21.97,34.519h5.54l18.087,32.395      c1.71,3.063,4.75,3.04,6.441-0.05l16.596-30.332L97.677,136.025z"/>
			</g>
		</g>
	</g>
	<g>
		<g>
			<path class="st17" d="M292.593,66.835H106.586c-4.971,0-9-4.029-9-9v0c0-4.971,4.029-9,9-9h186.007c4.971,0,9,4.029,9,9v0     C301.593,62.805,297.563,66.835,292.593,66.835z"/>
		</g>
	</g>
	<g>
		<g>
			<path class="st17" d="M423.628,102.835H106.586c-4.971,0-9-4.029-9-9v0c0-4.971,4.029-9,9-9h317.042c4.971,0,9,4.029,9,9v0     C432.628,98.805,428.598,102.835,423.628,102.835z"/>
		</g>
	</g>
	<g>
		<g>
			<path class="st15" d="M465.848,108.834c-3.313,0-6-2.687-6-6V48.014c0-3.313,2.687-6,6-6s6,2.687,6,6v54.821     C471.848,106.148,469.162,108.834,465.848,108.834z"/>
		</g>
	</g>
	<g>
		<g>
			<path class="st18" d="M277.73,408.969h36.368c4.238,0,8.409,0.281,12.5,0.819c-15.041-9.993-33.089-15.819-52.5-15.819H237.73     c-52.467,0-95,42.533-95,95v4.066h40.63C188.783,445.719,228.961,408.969,277.73,408.969z"/>
		</g>
	</g>
	<g>
		<g>
			<path class="st12" d="M199.805,312.966h19.427v-81.932c0-10.729-8.698-19.427-19.427-19.427h0     c-10.729,0-19.427,8.698-19.427,19.427v62.505C180.378,304.268,189.075,312.966,199.805,312.966z"/>
		</g>
	</g>
	<g>
		<g>
			<circle class="st9" cx="319.867" cy="295.572" r="20.684"/>
		</g>
	</g>
	<g>
		<g>
			<circle class="st13" cx="189.548" cy="295.572" r="20.684"/>
		</g>
	</g>
	<g>
		<g>
			<path class="st9" d="M255.914,435.599L255.914,435.599c-17.327,0-31.373-14.046-31.373-31.373v-74.813h62.746v74.813     C287.287,421.553,273.241,435.599,255.914,435.599z"/>
		</g>
	</g>
	<g>
		<g>
			<path class="st13" d="M246.261,404.226v-74.812h-21.72v74.812c0,17.327,14.046,31.373,31.373,31.373l0,0     c3.818,0,7.476-0.684,10.86-1.932C254.8,429.248,246.261,417.735,246.261,404.226z"/>
		</g>
	</g>
	<g>
		<g>
			<path class="st9" d="M255.914,369.211L255.914,369.211c-35.32,0-63.953-28.633-63.953-63.953v-32.558     c0-35.32,28.633-63.953,63.953-63.953h0c35.32,0,63.952,28.633,63.952,63.953v32.558     C319.867,340.578,291.234,369.211,255.914,369.211z"/>
		</g>
	</g>
	<g>
		<g>
			<path class="st13" d="M214.405,297.206v-31.746c0-2.422,0.136-4.811,0.399-7.163c0.407-3.64,3.528-6.371,7.191-6.371h94.419     c-8.624-25.122-32.452-43.179-60.5-43.179c-2.746,0-5.449,0.179-8.104,0.514c0.004-0.002,0.008-0.005,0.012-0.007     c-0.205,0.026-0.405,0.064-0.61,0.092c-0.674,0.092-1.347,0.189-2.014,0.302c-0.323,0.054-0.644,0.117-0.966,0.176     c-0.591,0.109-1.179,0.223-1.764,0.349c-0.339,0.073-0.677,0.149-1.014,0.227c-0.57,0.132-1.135,0.271-1.699,0.418     c-0.33,0.086-0.66,0.171-0.988,0.263c-0.584,0.162-1.163,0.336-1.74,0.514c-0.294,0.091-0.59,0.177-0.883,0.272     c-0.691,0.225-1.376,0.464-2.057,0.711c-0.168,0.061-0.339,0.116-0.507,0.179c-0.847,0.316-1.684,0.649-2.513,0.999     c-0.216,0.091-0.428,0.191-0.643,0.285c-0.607,0.264-1.211,0.533-1.808,0.815c-0.299,0.141-0.593,0.29-0.889,0.436     c-0.508,0.25-1.013,0.503-1.513,0.766c-0.317,0.166-0.631,0.337-0.944,0.508c-0.474,0.259-0.945,0.525-1.412,0.796     c-0.313,0.182-0.626,0.364-0.935,0.551c-0.469,0.283-0.932,0.574-1.393,0.869c-0.291,0.186-0.584,0.37-0.872,0.561     c-0.508,0.336-1.007,0.684-1.505,1.034c-0.229,0.161-0.462,0.316-0.688,0.48c-0.704,0.51-1.398,1.033-2.08,1.57     c-0.212,0.167-0.417,0.343-0.627,0.512c-0.476,0.385-0.95,0.771-1.414,1.169c-0.278,0.238-0.548,0.483-0.821,0.725     c-0.387,0.343-0.773,0.688-1.152,1.04c-0.287,0.267-0.568,0.538-0.85,0.81c-0.355,0.343-0.707,0.689-1.054,1.04     c-0.281,0.284-0.559,0.568-0.835,0.857c-0.339,0.356-0.672,0.718-1.003,1.081c-0.266,0.292-0.533,0.583-0.794,0.88     c-0.34,0.388-0.671,0.784-1.003,1.18c-0.236,0.282-0.477,0.56-0.708,0.847c-0.485,0.601-0.957,1.212-1.42,1.83     c-0.241,0.321-0.472,0.648-0.707,0.974c-0.324,0.45-0.649,0.899-0.961,1.358c-0.229,0.336-0.448,0.679-0.671,1.02     c-0.261,0.398-0.521,0.797-0.772,1.202c-0.226,0.362-0.444,0.729-0.663,1.096c-0.235,0.395-0.467,0.792-0.694,1.192     c-0.214,0.377-0.424,0.756-0.63,1.138c-0.218,0.403-0.429,0.81-0.638,1.219c-0.198,0.385-0.395,0.77-0.585,1.16     c-0.206,0.424-0.403,0.853-0.6,1.282c-0.175,0.381-0.355,0.76-0.523,1.146c-0.227,0.52-0.439,1.048-0.652,1.575     c-0.232,0.574-0.455,1.152-0.671,1.735c-0.177,0.477-0.358,0.952-0.524,1.434h0.005c-2.237,6.514-3.458,13.501-3.458,20.774     v31.785c0,35.184,28.094,64.358,63.275,64.722c11.311,0.117,21.954-2.703,31.213-7.744c-2.792,0.353-5.64,0.526-8.532,0.507     C242.636,361.731,214.405,332.488,214.405,297.206z"/>
		</g>
	</g>
	<g>
		<g>
			<path class="st17" d="M288.03,243.515h-92.448c-15.983,0-28.94-12.957-28.94-28.94v0c0-15.983,12.957-28.94,28.94-28.94h92.448     c15.983,0,28.94,12.957,28.94,28.94v0C316.971,230.558,304.014,243.515,288.03,243.515z"/>
		</g>
	</g>
	<g>
		<g>
			<path class="st1" d="M304.9,224.722c-3.207,0-5.866-2.535-5.992-5.767c-0.214-5.504-1.835-9.525-4.956-12.292     c-5.772-5.119-14.988-4.438-15.08-4.429c-3.297,0.26-6.195-2.175-6.478-5.465c-0.283-3.29,2.131-6.189,5.419-6.488     c0.579-0.055,14.31-1.193,24.007,7.321c5.679,4.986,8.733,12.013,9.079,20.886c0.129,3.311-2.451,6.1-5.762,6.229     C305.058,224.72,304.979,224.722,304.9,224.722z"/>
		</g>
	</g>
	<g>
		<g>
			<g>
				<circle class="st17" cx="219.714" cy="288.979" r="7.964"/>
			</g>
		</g>
		<g>
			<g>
				<circle class="st17" cx="292.114" cy="288.979" r="7.964"/>
			</g>
		</g>
	</g>
	<g>
		<g>
			<g>
				<circle class="st17" cx="370.314" cy="318.568" r="6.809"/>
			</g>
		</g>
		<g>
			<g>
				<circle class="st17" cx="432.215" cy="318.568" r="6.809"/>
			</g>
		</g>
	</g>
	<g>
		<g>
			<path class="st17" d="M438.988,279.841h-77.923c-7.997,0-14.48-6.483-14.48-14.48v0c0-19.335,15.674-35.008,35.008-35.008h36.866     c19.335,0,35.008,15.674,35.008,35.008v0C453.468,273.358,446.985,279.841,438.988,279.841z"/>
		</g>
	</g>
	<g>
		<g>
			<path class="st1" d="M441.08,264.643c-3.189,0-5.844-2.511-5.99-5.73c-0.126-2.795-0.961-4.783-2.629-6.257     c-3.417-3.019-9.631-3.27-11.537-3.12c-3.292,0.26-6.192-2.208-6.452-5.511c-0.26-3.303,2.208-6.192,5.511-6.452     c1.271-0.101,12.648-0.779,20.423,6.09c4.094,3.617,6.401,8.704,6.672,14.709c0.149,3.31-2.414,6.115-5.724,6.264     C441.262,264.641,441.17,264.643,441.08,264.643z"/>
		</g>
	</g>
	<g>
		<g>
			<path class="st12" d="M196.641,214.574L196.641,214.574c0-15.983,12.957-28.94,28.94-28.94h-30     c-15.983,0-28.94,12.957-28.94,28.94l0,0c0,15.983,12.957,28.94,28.94,28.94h30C209.598,243.515,196.641,230.558,196.641,214.574     z"/>
		</g>
	</g>
	<g>
		<g>
			<path class="st12" d="M366.585,265.361L366.585,265.361c0-19.334,15.674-35.008,35.008-35.008h-20     c-19.335,0-35.008,15.674-35.008,35.008l0,0c0,7.997,6.483,14.48,14.48,14.48h20     C373.068,279.841,366.585,273.358,366.585,265.361z"/>
		</g>
	</g>
	<g>
		<g>
			<path class="st12" d="M79.056,265.361L79.056,265.361c0-19.334,15.674-35.008,35.008-35.008h-23     c-19.335,0-35.008,15.674-35.008,35.008l0,0c0,7.997,6.483,14.48,14.48,14.48h23C85.539,279.841,79.056,273.358,79.056,265.361z"/>
		</g>
	</g>
	<g>
		<g>
			<circle class="st7" cx="74.17" cy="469.738" r="15.815"/>
		</g>
	</g>
	<g>
		<g>
			<circle class="st18" cx="214.193" cy="469.738" r="15.815"/>
		</g>
	</g>
	<g>
		<g>
			<circle class="st14" cx="401.593" cy="469.738" r="15.815"/>
		</g>
	</g>
	<g>
		<g>
			<circle class="st3" cx="349.905" cy="48.835" r="15.815"/>
		</g>
	</g>
</g>
</svg>
